<svg width="94" height="102" viewBox="0 0 94 102" fill="none" xmlns="http://www.w3.org/2000/svg">
<path d="M47 51C52.0054 51 56.8984 49.5045 61.0602 46.7025C65.222 43.9005 68.4658 39.9179 70.3813 35.2584C72.2967 30.5989 72.7979 25.4717 71.8214 20.5252C70.8449 15.5787 68.4346 11.035 64.8952 7.46879C61.3559 3.90255 56.8465 1.47391 51.9373 0.489987C47.0281 -0.493936 41.9395 0.0110487 37.3152 1.94108C32.6908 3.87112 28.7383 7.13952 25.9574 11.333C23.1766 15.5264 21.6923 20.4566 21.6923 25.5C21.6923 32.263 24.3586 38.749 29.1048 43.5312C33.8509 48.3134 40.288 51 47 51ZM47 58.2857C31.3138 58.2857 0 68.0486 0 87.4286V102H94V87.4286C94 68.0486 62.6862 58.2857 47 58.2857Z" fill="#575756"/>
</svg>
