<svg width="148" height="148" viewBox="0 0 148 148" fill="none" xmlns="http://www.w3.org/2000/svg">
<rect width="148" height="148" rx="10" fill="#3EBBC4"/>
<path d="M40.7143 118H120.739V40.2185H42.2101V29H40.7143C33.684 29 28 34.684 28 41.7143V105.286C28 112.316 33.684 118 40.7143 118ZM30.9916 41.7143C30.9916 36.8529 34.5815 32.8143 39.2185 32.1412V62.2815C39.2185 75.3697 39.2185 88.458 39.2185 92.6462C35.9277 93.0202 33.0109 94.6655 30.9916 97.0588V41.7143ZM30.9916 105.286C30.9916 99.9008 35.3294 95.563 40.7143 95.563H42.2101V43.2101H117.748V115.008H40.7143C35.3294 115.008 30.9916 110.671 30.9916 105.286Z" fill="white"/>
<path d="M110.269 65.6471H84.8403V64.1513H81.8487V68.6387H107.277V104.538H84.8403V77.6134H81.8487V104.538H52.6807V68.6387H69.8824V63.4034H66.8908V65.6471H52.6807V53.6807H81.8487V55.1765H84.8403V50.6891H49.6891V107.529H110.269V65.6471Z" fill="white"/>
</svg>
